<?xml version="1.0" encoding="UTF-8"?><svg id="_レイヤー_1" xmlns="http://www.w3.org/2000/svg" viewBox="0 0 595.28 66.51"><defs><style>.cls-1{fill:#2ea7e0;}</style></defs><path class="cls-1" d="m0,42.73C82.07,10.35,229.38-12.05,314.65,12.76c21.66,5.95,42.8,16.86,62.95,25.34,40.22,17.25,85.59,11.87,127.17,2.28,30.93-7.3,60.96-17.47,90.51-29.72-10.9,6.77-22.31,12.69-33.87,18.28-50.36,23.8-115.1,44.67-170.83,31.1-19.12-4.6-36.68-13.68-54.67-20.9-11.47-4.7-23.09-8.57-35.11-11.43-30.21-7.41-61.79-8.84-92.9-8.56-12.24,0-25.7.35-37.93.97C112.92,22.83,55.78,30.2,0,42.73h0Z"/></svg>